<?xml version="1.0" encoding="UTF-8" standalone="no"?>
<svg
   xmlns:dc="http://purl.org/dc/elements/1.1/"
   xmlns:cc="http://creativecommons.org/ns#"
   xmlns:rdf="http://www.w3.org/1999/02/22-rdf-syntax-ns#"
   xmlns:svg="http://www.w3.org/2000/svg"
   xmlns="http://www.w3.org/2000/svg"
   xmlns:sodipodi="http://sodipodi.sourceforge.net/DTD/sodipodi-0.dtd"
   xmlns:inkscape="http://www.inkscape.org/namespaces/inkscape"
   enable-background="new 0 0 450 255.12"
   version="1.1"
   viewBox="0 0 538.70802 126.11767"
   xml:space="preserve"
   id="svg250"
   sodipodi:docname="mach-logo.svg"
   width="538.70801"
   height="126.11767"
   inkscape:version="0.92.2 5c3e80d, 2017-08-06"
   inkscape:export-filename="/home/oznt/Software/mach/imgs/mach-logo.png"
   inkscape:export-xdpi="96"
   inkscape:export-ydpi="96"><metadata
     id="metadata256"><rdf:RDF><cc:Work
         rdf:about=""><dc:format>image/svg+xml</dc:format><dc:type
           rdf:resource="http://purl.org/dc/dcmitype/StillImage" /><dc:title></dc:title></cc:Work></rdf:RDF></metadata><defs
     id="defs254" /><sodipodi:namedview
     pagecolor="#ffffff"
     bordercolor="#666666"
     borderopacity="1"
     objecttolerance="10"
     gridtolerance="10"
     guidetolerance="10"
     inkscape:pageopacity="1"
     inkscape:pageshadow="2"
     inkscape:window-width="1365"
     inkscape:window-height="720"
     id="namedview252"
     showgrid="true"
     showguides="false"
     fit-margin-top="0"
     fit-margin-left="0"
     fit-margin-right="0"
     fit-margin-bottom="0"
     inkscape:pagecheckerboard="false"
     inkscape:zoom="1"
     inkscape:cx="178.20801"
     inkscape:cy="24.331562"
     inkscape:window-x="1"
     inkscape:window-y="24"
     inkscape:window-maximized="1"
     inkscape:current-layer="svg250"><inkscape:grid
       type="xygrid"
       id="grid4790"
       originx="-7.7919993"
       originy="-147.73201" /></sodipodi:namedview><g
     stroke-miterlimit="10"
     id="g86"
     style="fill:none;stroke:#000000;stroke-miterlimit:10"
     transform="matrix(2.4881671,0,0,2.4881671,-19.387802,-141.08151)"><path
       d="m 52.796,96.047 c 0,2.528 -2.049,4.578 -4.578,4.578 H 18.083 c -2.528,0 -4.578,-2.049 -4.578,-4.578 V 66.165 c 0,-2.528 2.049,-4.578 4.578,-4.578 h 30.136 c 2.528,0 4.578,2.05 4.578,4.578 v 29.882 z"
       id="path68"
       inkscape:connector-curvature="0" /><path
       d="m 52.733,65.339 c 0.003,-0.444 -0.006,-1.064 0.063,-1.52 0.151,-0.98 0.738,-2.027 1.413,-2.742 0.776,-0.822 1.939,-1.391 2.838,-2.039 0.063,-0.12 -0.073,0.094 -0.055,0.069"
       id="path70"
       inkscape:connector-curvature="0"
       style="stroke-width:0.75" /><path
       d="m 49.964,61.933 c 0,0 2.753,-0.036 4.891,-1.431"
       id="path72"
       inkscape:connector-curvature="0"
       style="stroke-width:0.75" /><path
       d="m 13.599,65.339 c -0.003,-0.444 0.006,-1.064 -0.063,-1.52 -0.151,-0.98 -0.739,-2.027 -1.414,-2.742 -0.776,-0.822 -1.939,-1.391 -2.838,-2.039 -0.062,-0.12 0.074,0.094 0.056,0.069"
       id="path74"
       inkscape:connector-curvature="0"
       style="stroke-width:0.75" /><path
       d="m 16.368,61.933 c 0,0 -2.753,-0.036 -4.891,-1.431"
       id="path76"
       inkscape:connector-curvature="0"
       style="stroke-width:0.75" /><path
       d="m 52.689,97.222 c -0.043,0.442 -0.119,1.057 -0.097,1.518 0.046,0.99 0.521,2.093 1.116,2.875 0.685,0.9 2.627,2.562 3.453,3.301"
       id="path78"
       inkscape:connector-curvature="0"
       style="stroke-width:0.75" /><path
       d="m 49.863,100.32 c 0,0 2.448,0.327 4.427,1.938"
       id="path80"
       inkscape:connector-curvature="0"
       style="stroke-width:0.75" /><path
       d="m 13.783,97.664 c 0.043,0.442 0.075,0.615 0.053,1.076 -0.046,0.99 -0.521,2.093 -1.116,2.875 -0.685,0.9 -2.627,2.562 -3.454,3.301"
       id="path82"
       inkscape:connector-curvature="0"
       style="stroke-width:0.75" /><path
       d="m 16.566,100.32 c 0,0 -2.448,0.327 -4.427,1.938"
       id="path84"
       inkscape:connector-curvature="0"
       style="stroke-width:0.75" /></g><text
     font-size="12"
     id="text88"
     style="font-size:12px;font-family:FuturaBT-Bold"
     x="16.810001"
     y="103.37368" />
<g
     stroke-miterlimit="10"
     id="g108"
     style="fill:none;stroke:#000000;stroke-miterlimit:10"
     transform="matrix(2.4881671,0,0,2.4881671,-19.387802,-141.08151)"><path
       d="m 108.06,96.047 c 0,2.528 -2.049,4.578 -4.578,4.578 H 73.347 c -2.528,0 -4.578,-2.049 -4.578,-4.578 V 66.165 c 0,-2.528 2.049,-4.578 4.578,-4.578 h 30.136 c 2.528,0 4.578,2.05 4.578,4.578 v 29.882 z"
       id="path90"
       inkscape:connector-curvature="0" /><path
       d="m 108,65.339 c 0.003,-0.444 -0.006,-1.064 0.063,-1.52 0.151,-0.98 0.738,-2.027 1.413,-2.742 0.776,-0.822 1.939,-1.391 2.838,-2.039 0.063,-0.12 -0.073,0.094 -0.055,0.069"
       id="path92"
       inkscape:connector-curvature="0"
       style="stroke-width:0.75" /><path
       d="m 105.23,61.933 c 0,0 2.753,-0.036 4.891,-1.431"
       id="path94"
       inkscape:connector-curvature="0"
       style="stroke-width:0.75" /><path
       d="m 68.868,65.339 c -0.003,-0.444 0.006,-1.064 -0.063,-1.52 -0.151,-0.98 -0.739,-2.027 -1.414,-2.742 -0.776,-0.822 -1.939,-1.391 -2.838,-2.039 -0.062,-0.12 0.074,0.094 0.056,0.069"
       id="path96"
       inkscape:connector-curvature="0"
       style="stroke-width:0.75" /><path
       d="m 71.637,61.933 c 0,0 -2.753,-0.036 -4.891,-1.431"
       id="path98"
       inkscape:connector-curvature="0"
       style="stroke-width:0.75" /><path
       d="m 107.96,97.222 c -0.043,0.442 -0.119,1.057 -0.097,1.518 0.046,0.99 0.521,2.093 1.116,2.875 0.685,0.9 2.627,2.562 3.453,3.301"
       id="path100"
       inkscape:connector-curvature="0"
       style="stroke-width:0.75" /><path
       d="m 105.13,100.32 c 0,0 2.448,0.327 4.427,1.938"
       id="path102"
       inkscape:connector-curvature="0"
       style="stroke-width:0.75" /><path
       d="m 69.052,97.664 c 0.043,0.442 0.075,0.615 0.053,1.076 -0.046,0.99 -0.521,2.093 -1.116,2.875 -0.685,0.9 -2.627,2.562 -3.454,3.301"
       id="path104"
       inkscape:connector-curvature="0"
       style="stroke-width:0.75" /><path
       d="m 71.835,100.32 c 0,0 -2.448,0.327 -4.427,1.938"
       id="path106"
       inkscape:connector-curvature="0"
       style="stroke-width:0.75" /></g><text
     font-size="12"
     id="text110"
     style="font-size:12px;font-family:FuturaBT-Bold"
     x="74.080002"
     y="103.37368" />
<g
     stroke-miterlimit="10"
     id="g202"
     style="fill:none;stroke:#000000;stroke-miterlimit:10"
     transform="matrix(2.4881671,0,0,2.4881671,-19.387802,-141.08151)"><path
       d="m 163.81,96.047 c 0,2.528 -2.05,4.578 -4.578,4.578 h -30.136 c -2.528,0 -4.578,-2.05 -4.578,-4.578 V 66.165 c 0,-2.528 2.049,-4.578 4.578,-4.578 h 30.136 c 2.528,0 4.578,2.05 4.578,4.578 z"
       id="path184"
       inkscape:connector-curvature="0" /><path
       d="m 163.75,65.339 c 0.004,-0.444 -0.006,-1.064 0.064,-1.52 0.15,-0.98 0.738,-2.027 1.412,-2.742 0.776,-0.822 1.939,-1.391 2.839,-2.039 0.063,-0.12 -0.073,0.094 -0.056,0.069"
       id="path186"
       inkscape:connector-curvature="0"
       style="stroke-width:0.75" /><path
       d="m 160.98,61.933 c 0,0 2.753,-0.036 4.892,-1.431"
       id="path188"
       inkscape:connector-curvature="0"
       style="stroke-width:0.75" /><path
       d="m 124.62,65.339 c -0.003,-0.444 0.006,-1.064 -0.063,-1.52 -0.151,-0.98 -0.739,-2.027 -1.414,-2.742 -0.776,-0.822 -1.939,-1.391 -2.838,-2.039 -0.062,-0.12 0.074,0.094 0.056,0.069"
       id="path190"
       inkscape:connector-curvature="0"
       style="stroke-width:0.75" /><path
       d="m 127.38,61.933 c 0,0 -2.753,-0.036 -4.891,-1.431"
       id="path192"
       inkscape:connector-curvature="0"
       style="stroke-width:0.75" /><path
       d="m 163.7,97.223 c -0.043,0.441 -0.119,1.057 -0.097,1.518 0.046,0.99 0.521,2.093 1.116,2.875 0.686,0.899 2.627,2.561 3.453,3.301"
       id="path194"
       inkscape:connector-curvature="0"
       style="stroke-width:0.75" /><path
       d="m 160.88,100.32 c 0,0 2.448,0.327 4.428,1.938"
       id="path196"
       inkscape:connector-curvature="0"
       style="stroke-width:0.75" /><path
       d="m 124.8,97.664 c 0.043,0.442 0.075,0.615 0.053,1.076 -0.046,0.99 -0.521,2.093 -1.116,2.875 -0.685,0.899 -2.627,2.561 -3.454,3.301"
       id="path198"
       inkscape:connector-curvature="0"
       style="stroke-width:0.75" /><path
       d="m 127.58,100.32 c 0,0 -2.448,0.327 -4.427,1.938"
       id="path200"
       inkscape:connector-curvature="0"
       style="stroke-width:0.75" /></g><g
     stroke-miterlimit="10"
     id="g222"
     style="fill:none;stroke:#000000;stroke-miterlimit:10"
     transform="matrix(2.4881671,0,0,2.4881671,-19.387802,-141.08151)"><path
       d="m 218.62,96.047 c 0,2.529 -2.049,4.578 -4.578,4.578 h -30.136 c -2.528,0 -4.578,-2.049 -4.578,-4.578 V 66.166 c 0,-2.528 2.049,-4.578 4.578,-4.578 h 30.136 c 2.529,0 4.578,2.05 4.578,4.578 z"
       id="path204"
       inkscape:connector-curvature="0" /><path
       d="m 218.55,65.339 c 0.004,-0.444 -0.006,-1.064 0.064,-1.52 0.15,-0.98 0.738,-2.027 1.412,-2.742 0.777,-0.822 1.939,-1.391 2.84,-2.039 0.063,-0.12 -0.074,0.094 -0.057,0.069"
       id="path206"
       inkscape:connector-curvature="0"
       style="stroke-width:0.75" /><path
       d="m 215.78,61.934 c 0,0 2.752,-0.036 4.891,-1.431"
       id="path208"
       inkscape:connector-curvature="0"
       style="stroke-width:0.75" /><path
       d="m 179.42,65.339 c -0.003,-0.444 0.006,-1.064 -0.063,-1.52 -0.151,-0.98 -0.739,-2.027 -1.414,-2.742 -0.776,-0.822 -1.939,-1.391 -2.838,-2.039 -0.062,-0.12 0.074,0.094 0.056,0.069"
       id="path210"
       inkscape:connector-curvature="0"
       style="stroke-width:0.75" /><path
       d="m 182.19,61.934 c 0,0 -2.753,-0.036 -4.891,-1.431"
       id="path212"
       inkscape:connector-curvature="0"
       style="stroke-width:0.75" /><path
       d="m 218.51,97.223 c -0.043,0.441 -0.119,1.057 -0.096,1.518 0.045,0.99 0.52,2.094 1.115,2.875 0.686,0.9 2.627,2.561 3.453,3.301"
       id="path214"
       inkscape:connector-curvature="0"
       style="stroke-width:0.75" /><path
       d="m 215.68,100.32 c 0,0 2.449,0.328 4.428,1.939"
       id="path216"
       inkscape:connector-curvature="0"
       style="stroke-width:0.75" /><path
       d="m 179.6,97.664 c 0.043,0.443 0.075,0.615 0.053,1.076 -0.046,0.99 -0.521,2.094 -1.116,2.875 -0.685,0.9 -2.627,2.561 -3.454,3.301"
       id="path218"
       inkscape:connector-curvature="0"
       style="stroke-width:0.75" /><path
       d="m 182.38,100.32 c 0,0 -2.448,0.328 -4.427,1.939"
       id="path220"
       inkscape:connector-curvature="0"
       style="stroke-width:0.75" /></g><text
     font-size="20.328"
     id="text224"
     style="font-size:20.32799911px;font-family:FuturaBT-Bold"
     x="126.968"
     y="105.66868" />
<text
     font-size="18.397"
     id="text226"
     style="font-size:18.39699936px;font-family:FuturaBT-Bold"
     x="185.528"
     y="106.15468" />
<path
     style="fill:none;stroke:#000000;stroke-width:2.4881711;stroke-miterlimit:10"
     inkscape:connector-curvature="0"
     id="path228"
     d="m 537.46392,113.48279 c 0,6.29256 -5.09833,11.39079 -11.39106,11.39079 H 425.22734 c -6.28967,0 -11.39099,-5.09823 -11.39099,-11.39079 V 12.637387 c 0,-6.2900764 5.09881,-11.3908264 11.39099,-11.3908264 h 100.84552 c 6.29273,0 11.39106,5.098253 11.39106,11.3908264 z" /><path
     style="fill:none;stroke:#000000;stroke-width:2.4881711;stroke-miterlimit:10"
     inkscape:connector-curvature="0"
     id="path230"
     d="m 401.08722,113.48279 c 0,6.29256 -5.10058,11.39079 -11.39034,11.39079 H 288.84893 c -6.29033,0 -11.39119,-5.09823 -11.39119,-11.39079 V 12.637387 c 0,-6.2900764 5.09835,-11.3908264 11.39119,-11.3908264 h 100.84795 c 6.28976,0 11.39034,5.098253 11.39034,11.3908264 z" /><path
     style="fill:none;stroke:#000000;stroke-width:2.4881711;stroke-miterlimit:10"
     inkscape:connector-curvature="0"
     id="path238"
     d="m 262.39707,113.48279 c 0,6.29007 -5.0984,11.39079 -11.39083,11.39079 H 150.16082 c -6.29001,0 -11.39066,-5.09823 -11.39066,-11.39079 V 12.634913 c 0,-6.2900994 5.09817,-11.3908274 11.39066,-11.3908274 h 100.84776 c 6.29009,0 11.3913,5.098249 11.3913,11.3908274 V 113.48279 Z" /><path
     style="fill:none;stroke:#000000;stroke-width:2.4881711;stroke-miterlimit:10"
     inkscape:connector-curvature="0"
     id="path240"
     d="m 124.87134,113.48279 c 0,6.29007 -5.0985,11.39079 -11.39107,11.39079 H 12.634912 c -6.2900828,0 -11.3908264,-5.09823 -11.3908264,-11.39079 V 12.634913 c 0,-6.2900994 5.0982542,-11.3908274 11.3908264,-11.3908274 H 113.48027 c 6.29012,0 11.39107,5.098249 11.39107,11.3908274 z" /><flowRoot
     xml:space="preserve"
     id="flowRoot4752"
     style="font-style:normal;font-weight:normal;font-size:40px;line-height:125%;font-family:sans-serif;letter-spacing:0px;word-spacing:0px;fill:#000000;fill-opacity:1;stroke:none;stroke-width:1px;stroke-linecap:butt;stroke-linejoin:miter;stroke-opacity:1"
     transform="translate(-7.7919989,18.729676)"><flowRegion
       id="flowRegion4754"><rect
         id="rect4756"
         width="237.21973"
         height="76.681618"
         x="-0.89686096"
         y="110.72538" /></flowRegion><flowPara
       id="flowPara4758"></flowPara></flowRoot><text
     xml:space="preserve"
     style="font-style:normal;font-variant:normal;font-weight:normal;font-stretch:normal;font-size:40px;line-height:125%;font-family:'Liberation Serif';-inkscape-font-specification:'Liberation Serif';letter-spacing:0px;word-spacing:0px;fill:#000000;fill-opacity:1;stroke:none;stroke-width:1px;stroke-linecap:butt;stroke-linejoin:miter;stroke-opacity:1"
     x="21.804415"
     y="100.7555"
     id="text4772"><tspan
       sodipodi:role="line"
       id="tspan4770"
       x="21.804415"
       y="136.26033" /></text>
<text
     xml:space="preserve"
     style="font-style:normal;font-variant:normal;font-weight:normal;font-stretch:normal;font-size:99.52661896px;line-height:125%;font-family:'Nimbus Roman No9 L';-inkscape-font-specification:'Nimbus Roman No9 L';letter-spacing:0px;word-spacing:0px;fill:#000000;fill-opacity:1;stroke:none;stroke-width:2.4881711px;stroke-linecap:butt;stroke-linejoin:miter;stroke-opacity:1"
     x="19.386002"
     y="65.73661"
     id="text4794"><tspan
       sodipodi:role="line"
       id="tspan4792"
       x="19.386002"
       y="65.73661"
       style="font-style:normal;font-variant:normal;font-weight:normal;font-stretch:normal;font-size:59.71603394px;font-family:'URW Gothic L';-inkscape-font-specification:'URW Gothic L';stroke-width:2.4881711px">M</tspan></text>
<text
     xml:space="preserve"
     style="font-style:normal;font-variant:normal;font-weight:normal;font-stretch:normal;font-size:102.578125px;line-height:125%;font-family:'Nimbus Roman No9 L';-inkscape-font-specification:'Nimbus Roman No9 L';letter-spacing:0px;word-spacing:0px;fill:#000000;fill-opacity:1;stroke:none;stroke-width:2.56444955px;stroke-linecap:butt;stroke-linejoin:miter;stroke-opacity:1"
     x="163.46678"
     y="66.022186"
     id="text4794-1"
     transform="scale(0.97025368,1.0306583)"><tspan
       sodipodi:role="line"
       id="tspan4792-3"
       x="163.46678"
       y="66.022186"
       style="font-style:normal;font-variant:normal;font-weight:normal;font-stretch:normal;font-size:61.54695892px;font-family:'URW Gothic L';-inkscape-font-specification:'URW Gothic L';stroke-width:2.56444955px">A</tspan></text>
<text
     xml:space="preserve"
     style="font-style:normal;font-variant:normal;font-weight:normal;font-stretch:normal;font-size:99.52661896px;line-height:125%;font-family:'Nimbus Roman No9 L';-inkscape-font-specification:'Nimbus Roman No9 L';letter-spacing:0px;word-spacing:0px;fill:#000000;fill-opacity:1;stroke:none;stroke-width:2.4881711px;stroke-linecap:butt;stroke-linejoin:miter;stroke-opacity:1"
     x="431.88104"
     y="65.81414"
     id="text4794-4"><tspan
       sodipodi:role="line"
       id="tspan4792-5"
       x="431.88104"
       y="65.81414"
       style="font-style:normal;font-variant:normal;font-weight:normal;font-stretch:normal;font-size:59.71603394px;font-family:'URW Gothic L';-inkscape-font-specification:'URW Gothic L';stroke-width:2.4881711px">H</tspan></text>
<text
     xml:space="preserve"
     style="font-style:normal;font-variant:normal;font-weight:normal;font-stretch:normal;font-size:99.52661896px;line-height:125%;font-family:'Nimbus Roman No9 L';-inkscape-font-specification:'Nimbus Roman No9 L';letter-spacing:0px;word-spacing:0px;fill:#000000;fill-opacity:1;stroke:none;stroke-width:2.4881711px;stroke-linecap:butt;stroke-linejoin:miter;stroke-opacity:1"
     x="297.25989"
     y="66.50106"
     id="text4794-8"><tspan
       sodipodi:role="line"
       id="tspan4792-57"
       x="297.25989"
       y="66.50106"
       style="font-style:normal;font-variant:normal;font-weight:normal;font-stretch:normal;font-size:59.71603394px;font-family:'URW Gothic L';-inkscape-font-specification:'URW Gothic L';stroke-width:2.4881711px">C</tspan></text>
</svg>